<?xml version="1.0" standalone="no"?>
<!DOCTYPE svg PUBLIC "-//W3C//DTD SVG 20010904//EN"
 "http://www.w3.org/TR/2001/REC-SVG-20010904/DTD/svg10.dtd">
<svg version="1.0" xmlns="http://www.w3.org/2000/svg"
 width="375.000000pt" height="375.000000pt" viewBox="0 0 375.000000 375.000000"
 preserveAspectRatio="xMidYMid meet">
<metadata>
Created by potrace 1.11, written by Peter Selinger 2001-2013
</metadata>
<g transform="translate(0.000000,375.000000) scale(0.100000,-0.100000)"
fill="#000000" stroke="none">
<path d="M0 1875 l0 -1875 1875 0 1875 0 0 1028 0 1027 -31 -55 c-31 -57 -111
-207 -196 -370 -28 -52 -114 -221 -192 -375 -77 -154 -166 -327 -197 -385
-165 -310 -217 -407 -288 -540 -62 -115 -61 -113 -83 -106 -17 5 -89 124 -257
420 -15 28 -45 80 -66 116 -21 36 -47 81 -58 101 -11 20 -73 128 -138 240 -64
112 -131 229 -147 259 -17 30 -48 83 -69 118 -21 34 -38 64 -38 67 0 3 -27 50
-60 106 -33 55 -60 102 -60 104 0 3 -161 283 -208 363 -18 29 -32 55 -32 58 0
16 -84 143 -98 149 -23 8 -42 -21 -42 -64 0 -20 -6 -101 -14 -181 -8 -80 -22
-224 -31 -320 -8 -96 -22 -247 -30 -335 -8 -88 -22 -243 -30 -345 -9 -102 -23
-254 -31 -339 -26 -279 -19 -310 71 -336 27 -8 66 -17 86 -20 41 -6 72 -35 67
-62 -3 -17 -19 -18 -228 -19 -124 -1 -259 -4 -301 -8 -90 -7 -109 -2 -109 30
0 30 32 50 92 58 97 12 112 37 132 226 24 215 45 391 61 520 19 149 40 329 60
505 8 77 22 192 30 255 29 237 36 304 45 482 6 101 7 203 4 228 -10 66 -46 95
-134 110 -73 12 -100 28 -100 59 0 35 21 38 217 32 175 -5 194 -8 212 -26 11
-11 82 -135 159 -275 195 -357 203 -370 229 -412 13 -21 23 -40 23 -43 0 -2
27 -50 60 -106 33 -55 60 -102 60 -104 0 -2 27 -49 60 -105 33 -56 60 -103 60
-105 0 -2 19 -36 43 -77 24 -40 55 -93 69 -118 90 -161 318 -553 348 -600 6
-8 13 -22 17 -30 4 -8 18 -33 32 -55 40 -63 49 -79 60 -100 5 -12 15 -26 23
-33 20 -16 33 0 93 113 27 50 71 131 98 180 93 170 104 190 177 330 40 77 92
176 115 220 23 44 68 130 100 190 53 102 95 179 153 280 20 36 113 223 186
374 l26 55 0 698 0 698 -1875 0 -1875 0 0 -1875z"/>
</g>
</svg>
